solid idm-roomsensor-esp_lid.stl
facet normal -1.0 0.0 -0.0
outer loop
vertex -32.5 -22.5 11.0
vertex -32.5 22.5 11.0
vertex -32.5 -22.5 9.0
endloop
endfacet
facet normal -0.0 -1.0 -0.0
outer loop
vertex 32.5 -22.5 9.0
vertex -32.5 -22.5 11.0
vertex -32.5 -22.5 9.0
endloop
endfacet
facet normal -1.0 0.0 0.0
outer loop
vertex -32.5 -22.5 9.0
vertex -32.5 22.5 11.0
vertex -32.5 22.5 9.0
endloop
endfacet
facet normal -0.0 -0.0 -1.0
outer loop
vertex -32.5 22.5 9.0
vertex 32.5 -22.5 9.0
vertex -32.5 -22.5 9.0
endloop
endfacet
facet normal 0.0 -0.0 1.0
outer loop
vertex -32.5 -22.5 11.0
vertex 32.5 22.5 11.0
vertex -32.5 22.5 11.0
endloop
endfacet
facet normal -0.0 -1.0 -0.0
outer loop
vertex 32.5 -22.5 11.0
vertex -32.5 -22.5 11.0
vertex 32.5 -22.5 9.0
endloop
endfacet
facet normal 0.0 -0.0 1.0
outer loop
vertex 32.5 -22.5 11.0
vertex 32.5 22.5 11.0
vertex -32.5 -22.5 11.0
endloop
endfacet
facet normal -0.0 1.0 0.0
outer loop
vertex -32.5 22.5 11.0
vertex 32.5 22.5 11.0
vertex -32.5 22.5 9.0
endloop
endfacet
facet normal -0.0 -0.0 -1.0
outer loop
vertex 32.5 22.5 9.0
vertex 32.5 -22.5 9.0
vertex -32.5 22.5 9.0
endloop
endfacet
facet normal -0.0 1.0 0.0
outer loop
vertex -32.5 22.5 9.0
vertex 32.5 22.5 11.0
vertex 32.5 22.5 9.0
endloop
endfacet
facet normal 1.0 0.0 0.0
outer loop
vertex 32.5 22.5 9.0
vertex 32.5 -22.5 11.0
vertex 32.5 -22.5 9.0
endloop
endfacet
facet normal 1.0 0.0 0.0
outer loop
vertex 32.5 22.5 11.0
vertex 32.5 -22.5 11.0
vertex 32.5 22.5 9.0
endloop
endfacet
facet normal -1.0 0.0 -0.0
outer loop
vertex -32.5 -22.5 11.0
vertex -32.5 22.5 11.0
vertex -32.5 -22.5 -1.0
endloop
endfacet
facet normal -0.0 -1.0 -0.0
outer loop
vertex -30.5 -22.5 -1.0
vertex -32.5 -22.5 11.0
vertex -32.5 -22.5 -1.0
endloop
endfacet
facet normal -1.0 0.0 0.0
outer loop
vertex -32.5 -22.5 -1.0
vertex -32.5 22.5 11.0
vertex -32.5 22.5 -1.0
endloop
endfacet
facet normal -0.0 -0.0 -1.0
outer loop
vertex -32.5 22.5 -1.0
vertex -30.5 -22.5 -1.0
vertex -32.5 -22.5 -1.0
endloop
endfacet
facet normal 0.0 -0.0 1.0
outer loop
vertex -32.5 -22.5 11.0
vertex -30.5 22.5 11.0
vertex -32.5 22.5 11.0
endloop
endfacet
facet normal -0.0 -1.0 -0.0
outer loop
vertex -30.5 -22.5 11.0
vertex -32.5 -22.5 11.0
vertex -30.5 -22.5 -1.0
endloop
endfacet
facet normal 0.0 -0.0 1.0
outer loop
vertex -30.5 -22.5 11.0
vertex -30.5 22.5 11.0
vertex -32.5 -22.5 11.0
endloop
endfacet
facet normal -0.0 1.0 0.0
outer loop
vertex -32.5 22.5 11.0
vertex -30.5 22.5 11.0
vertex -32.5 22.5 -1.0
endloop
endfacet
facet normal -0.0 -0.0 -1.0
outer loop
vertex -30.5 22.5 -1.0
vertex -30.5 -22.5 -1.0
vertex -32.5 22.5 -1.0
endloop
endfacet
facet normal -0.0 1.0 0.0
outer loop
vertex -32.5 22.5 -1.0
vertex -30.5 22.5 11.0
vertex -30.5 22.5 -1.0
endloop
endfacet
facet normal 1.0 0.0 0.0
outer loop
vertex -30.5 22.5 -1.0
vertex -30.5 -22.5 11.0
vertex -30.5 -22.5 -1.0
endloop
endfacet
facet normal 1.0 0.0 0.0
outer loop
vertex -30.5 22.5 11.0
vertex -30.5 -22.5 11.0
vertex -30.5 22.5 -1.0
endloop
endfacet
facet normal -1.0 0.0 -0.0
outer loop
vertex 30.5 -22.5 11.0
vertex 30.5 22.5 11.0
vertex 30.5 -22.5 -1.0
endloop
endfacet
facet normal -0.0 -1.0 -0.0
outer loop
vertex 32.5 -22.5 -1.0
vertex 30.5 -22.5 11.0
vertex 30.5 -22.5 -1.0
endloop
endfacet
facet normal -1.0 0.0 0.0
outer loop
vertex 30.5 -22.5 -1.0
vertex 30.5 22.5 11.0
vertex 30.5 22.5 -1.0
endloop
endfacet
facet normal -0.0 -0.0 -1.0
outer loop
vertex 30.5 22.5 -1.0
vertex 32.5 -22.5 -1.0
vertex 30.5 -22.5 -1.0
endloop
endfacet
facet normal 0.0 -0.0 1.0
outer loop
vertex 30.5 -22.5 11.0
vertex 32.5 22.5 11.0
vertex 30.5 22.5 11.0
endloop
endfacet
facet normal -0.0 -1.0 -0.0
outer loop
vertex 32.5 -22.5 11.0
vertex 30.5 -22.5 11.0
vertex 32.5 -22.5 -1.0
endloop
endfacet
facet normal 0.0 -0.0 1.0
outer loop
vertex 32.5 -22.5 11.0
vertex 32.5 22.5 11.0
vertex 30.5 -22.5 11.0
endloop
endfacet
facet normal -0.0 1.0 0.0
outer loop
vertex 30.5 22.5 11.0
vertex 32.5 22.5 11.0
vertex 30.5 22.5 -1.0
endloop
endfacet
facet normal -0.0 -0.0 -1.0
outer loop
vertex 32.5 22.5 -1.0
vertex 32.5 -22.5 -1.0
vertex 30.5 22.5 -1.0
endloop
endfacet
facet normal -0.0 1.0 0.0
outer loop
vertex 30.5 22.5 -1.0
vertex 32.5 22.5 11.0
vertex 32.5 22.5 -1.0
endloop
endfacet
facet normal 1.0 0.0 0.0
outer loop
vertex 32.5 22.5 -1.0
vertex 32.5 -22.5 11.0
vertex 32.5 -22.5 -1.0
endloop
endfacet
facet normal 1.0 0.0 0.0
outer loop
vertex 32.5 22.5 11.0
vertex 32.5 -22.5 11.0
vertex 32.5 22.5 -1.0
endloop
endfacet
facet normal -1.0 0.0 -0.0
outer loop
vertex -30.5 -22.5 11.0
vertex -30.5 -20.5 11.0
vertex -30.5 -22.5 -1.0
endloop
endfacet
facet normal -0.0 -1.0 -0.0
outer loop
vertex 30.5 -22.5 -1.0
vertex -30.5 -22.5 11.0
vertex -30.5 -22.5 -1.0
endloop
endfacet
facet normal -1.0 0.0 0.0
outer loop
vertex -30.5 -22.5 -1.0
vertex -30.5 -20.5 11.0
vertex -30.5 -20.5 -1.0
endloop
endfacet
facet normal -0.0 -0.0 -1.0
outer loop
vertex -30.5 -20.5 -1.0
vertex 30.5 -22.5 -1.0
vertex -30.5 -22.5 -1.0
endloop
endfacet
facet normal 0.0 -0.0 1.0
outer loop
vertex -30.5 -22.5 11.0
vertex 30.5 -20.5 11.0
vertex -30.5 -20.5 11.0
endloop
endfacet
facet normal -0.0 -1.0 -0.0
outer loop
vertex 30.5 -22.5 11.0
vertex -30.5 -22.5 11.0
vertex 30.5 -22.5 -1.0
endloop
endfacet
facet normal 0.0 -0.0 1.0
outer loop
vertex 30.5 -22.5 11.0
vertex 30.5 -20.5 11.0
vertex -30.5 -22.5 11.0
endloop
endfacet
facet normal -0.0 1.0 0.0
outer loop
vertex -30.5 -20.5 11.0
vertex 30.5 -20.5 11.0
vertex -30.5 -20.5 -1.0
endloop
endfacet
facet normal -0.0 -0.0 -1.0
outer loop
vertex 30.5 -20.5 -1.0
vertex 30.5 -22.5 -1.0
vertex -30.5 -20.5 -1.0
endloop
endfacet
facet normal -0.0 1.0 0.0
outer loop
vertex -30.5 -20.5 -1.0
vertex 30.5 -20.5 11.0
vertex 30.5 -20.5 -1.0
endloop
endfacet
facet normal 1.0 0.0 0.0
outer loop
vertex 30.5 -20.5 -1.0
vertex 30.5 -22.5 11.0
vertex 30.5 -22.5 -1.0
endloop
endfacet
facet normal 1.0 0.0 0.0
outer loop
vertex 30.5 -20.5 11.0
vertex 30.5 -22.5 11.0
vertex 30.5 -20.5 -1.0
endloop
endfacet
facet normal -1.0 0.0 -0.0
outer loop
vertex -30.5 20.5 11.0
vertex -30.5 22.5 11.0
vertex -30.5 20.5 -1.0
endloop
endfacet
facet normal -0.0 -1.0 -0.0
outer loop
vertex 30.5 20.5 -1.0
vertex -30.5 20.5 11.0
vertex -30.5 20.5 -1.0
endloop
endfacet
facet normal -1.0 0.0 0.0
outer loop
vertex -30.5 20.5 -1.0
vertex -30.5 22.5 11.0
vertex -30.5 22.5 -1.0
endloop
endfacet
facet normal -0.0 -0.0 -1.0
outer loop
vertex -30.5 22.5 -1.0
vertex 30.5 20.5 -1.0
vertex -30.5 20.5 -1.0
endloop
endfacet
facet normal 0.0 -0.0 1.0
outer loop
vertex -30.5 20.5 11.0
vertex 30.5 22.5 11.0
vertex -30.5 22.5 11.0
endloop
endfacet
facet normal -0.0 -1.0 -0.0
outer loop
vertex 30.5 20.5 11.0
vertex -30.5 20.5 11.0
vertex 30.5 20.5 -1.0
endloop
endfacet
facet normal 0.0 -0.0 1.0
outer loop
vertex 30.5 20.5 11.0
vertex 30.5 22.5 11.0
vertex -30.5 20.5 11.0
endloop
endfacet
facet normal -0.0 1.0 0.0
outer loop
vertex -30.5 22.5 11.0
vertex 30.5 22.5 11.0
vertex -30.5 22.5 -1.0
endloop
endfacet
facet normal -0.0 -0.0 -1.0
outer loop
vertex 30.5 22.5 -1.0
vertex 30.5 20.5 -1.0
vertex -30.5 22.5 -1.0
endloop
endfacet
facet normal -0.0 1.0 0.0
outer loop
vertex -30.5 22.5 -1.0
vertex 30.5 22.5 11.0
vertex 30.5 22.5 -1.0
endloop
endfacet
facet normal 1.0 0.0 0.0
outer loop
vertex 30.5 22.5 -1.0
vertex 30.5 20.5 11.0
vertex 30.5 20.5 -1.0
endloop
endfacet
facet normal 1.0 0.0 0.0
outer loop
vertex 30.5 22.5 11.0
vertex 30.5 20.5 11.0
vertex 30.5 22.5 -1.0
endloop
endfacet
facet normal -1.0 0.0 -0.0
outer loop
vertex -28.5 -16.600000381469727 10.25
vertex -28.5 -15.399999618530273 10.25
vertex -28.5 -16.600000381469727 8.75
endloop
endfacet
facet normal -0.0 -1.0 -0.0
outer loop
vertex 28.5 -16.600000381469727 8.75
vertex -28.5 -16.600000381469727 10.25
vertex -28.5 -16.600000381469727 8.75
endloop
endfacet
facet normal -1.0 0.0 0.0
outer loop
vertex -28.5 -16.600000381469727 8.75
vertex -28.5 -15.399999618530273 10.25
vertex -28.5 -15.399999618530273 8.75
endloop
endfacet
facet normal -0.0 -0.0 -1.0
outer loop
vertex -28.5 -15.399999618530273 8.75
vertex 28.5 -16.600000381469727 8.75
vertex -28.5 -16.600000381469727 8.75
endloop
endfacet
facet normal 0.0 -0.0 1.0
outer loop
vertex -28.5 -16.600000381469727 10.25
vertex 28.5 -15.399999618530273 10.25
vertex -28.5 -15.399999618530273 10.25
endloop
endfacet
facet normal -0.0 -1.0 -0.0
outer loop
vertex 28.5 -16.600000381469727 10.25
vertex -28.5 -16.600000381469727 10.25
vertex 28.5 -16.600000381469727 8.75
endloop
endfacet
facet normal 0.0 -0.0 1.0
outer loop
vertex 28.5 -16.600000381469727 10.25
vertex 28.5 -15.399999618530273 10.25
vertex -28.5 -16.600000381469727 10.25
endloop
endfacet
facet normal -0.0 1.0 0.0
outer loop
vertex -28.5 -15.399999618530273 10.25
vertex 28.5 -15.399999618530273 10.25
vertex -28.5 -15.399999618530273 8.75
endloop
endfacet
facet normal -0.0 -0.0 -1.0
outer loop
vertex 28.5 -15.399999618530273 8.75
vertex 28.5 -16.600000381469727 8.75
vertex -28.5 -15.399999618530273 8.75
endloop
endfacet
facet normal -0.0 1.0 0.0
outer loop
vertex -28.5 -15.399999618530273 8.75
vertex 28.5 -15.399999618530273 10.25
vertex 28.5 -15.399999618530273 8.75
endloop
endfacet
facet normal 1.0 0.0 0.0
outer loop
vertex 28.5 -15.399999618530273 8.75
vertex 28.5 -16.600000381469727 10.25
vertex 28.5 -16.600000381469727 8.75
endloop
endfacet
facet normal 1.0 0.0 0.0
outer loop
vertex 28.5 -15.399999618530273 10.25
vertex 28.5 -16.600000381469727 10.25
vertex 28.5 -15.399999618530273 8.75
endloop
endfacet
facet normal -1.0 0.0 -0.0
outer loop
vertex -28.5 -11.600000381469727 10.25
vertex -28.5 -10.399999618530273 10.25
vertex -28.5 -11.600000381469727 8.75
endloop
endfacet
facet normal -0.0 -1.0 -0.0
outer loop
vertex 28.5 -11.600000381469727 8.75
vertex -28.5 -11.600000381469727 10.25
vertex -28.5 -11.600000381469727 8.75
endloop
endfacet
facet normal -1.0 0.0 0.0
outer loop
vertex -28.5 -11.600000381469727 8.75
vertex -28.5 -10.399999618530273 10.25
vertex -28.5 -10.399999618530273 8.75
endloop
endfacet
facet normal -0.0 -0.0 -1.0
outer loop
vertex -28.5 -10.399999618530273 8.75
vertex 28.5 -11.600000381469727 8.75
vertex -28.5 -11.600000381469727 8.75
endloop
endfacet
facet normal 0.0 -0.0 1.0
outer loop
vertex -28.5 -11.600000381469727 10.25
vertex 28.5 -10.399999618530273 10.25
vertex -28.5 -10.399999618530273 10.25
endloop
endfacet
facet normal -0.0 -1.0 -0.0
outer loop
vertex 28.5 -11.600000381469727 10.25
vertex -28.5 -11.600000381469727 10.25
vertex 28.5 -11.600000381469727 8.75
endloop
endfacet
facet normal 0.0 -0.0 1.0
outer loop
vertex 28.5 -11.600000381469727 10.25
vertex 28.5 -10.399999618530273 10.25
vertex -28.5 -11.600000381469727 10.25
endloop
endfacet
facet normal -0.0 1.0 0.0
outer loop
vertex -28.5 -10.399999618530273 10.25
vertex 28.5 -10.399999618530273 10.25
vertex -28.5 -10.399999618530273 8.75
endloop
endfacet
facet normal -0.0 -0.0 -1.0
outer loop
vertex 28.5 -10.399999618530273 8.75
vertex 28.5 -11.600000381469727 8.75
vertex -28.5 -10.399999618530273 8.75
endloop
endfacet
facet normal -0.0 1.0 0.0
outer loop
vertex -28.5 -10.399999618530273 8.75
vertex 28.5 -10.399999618530273 10.25
vertex 28.5 -10.399999618530273 8.75
endloop
endfacet
facet normal 1.0 0.0 0.0
outer loop
vertex 28.5 -10.399999618530273 8.75
vertex 28.5 -11.600000381469727 10.25
vertex 28.5 -11.600000381469727 8.75
endloop
endfacet
facet normal 1.0 0.0 0.0
outer loop
vertex 28.5 -10.399999618530273 10.25
vertex 28.5 -11.600000381469727 10.25
vertex 28.5 -10.399999618530273 8.75
endloop
endfacet
facet normal -1.0 0.0 -0.0
outer loop
vertex -28.5 -6.599999904632568 10.25
vertex -28.5 -5.400000095367432 10.25
vertex -28.5 -6.599999904632568 8.75
endloop
endfacet
facet normal -0.0 -1.0 -0.0
outer loop
vertex 28.5 -6.599999904632568 8.75
vertex -28.5 -6.599999904632568 10.25
vertex -28.5 -6.599999904632568 8.75
endloop
endfacet
facet normal -1.0 0.0 0.0
outer loop
vertex -28.5 -6.599999904632568 8.75
vertex -28.5 -5.400000095367432 10.25
vertex -28.5 -5.400000095367432 8.75
endloop
endfacet
facet normal -0.0 -0.0 -1.0
outer loop
vertex -28.5 -5.400000095367432 8.75
vertex 28.5 -6.599999904632568 8.75
vertex -28.5 -6.599999904632568 8.75
endloop
endfacet
facet normal 0.0 -0.0 1.0
outer loop
vertex -28.5 -6.599999904632568 10.25
vertex 28.5 -5.400000095367432 10.25
vertex -28.5 -5.400000095367432 10.25
endloop
endfacet
facet normal -0.0 -1.0 -0.0
outer loop
vertex 28.5 -6.599999904632568 10.25
vertex -28.5 -6.599999904632568 10.25
vertex 28.5 -6.599999904632568 8.75
endloop
endfacet
facet normal 0.0 -0.0 1.0
outer loop
vertex 28.5 -6.599999904632568 10.25
vertex 28.5 -5.400000095367432 10.25
vertex -28.5 -6.599999904632568 10.25
endloop
endfacet
facet normal -0.0 1.0 0.0
outer loop
vertex -28.5 -5.400000095367432 10.25
vertex 28.5 -5.400000095367432 10.25
vertex -28.5 -5.400000095367432 8.75
endloop
endfacet
facet normal -0.0 -0.0 -1.0
outer loop
vertex 28.5 -5.400000095367432 8.75
vertex 28.5 -6.599999904632568 8.75
vertex -28.5 -5.400000095367432 8.75
endloop
endfacet
facet normal -0.0 1.0 0.0
outer loop
vertex -28.5 -5.400000095367432 8.75
vertex 28.5 -5.400000095367432 10.25
vertex 28.5 -5.400000095367432 8.75
endloop
endfacet
facet normal 1.0 0.0 0.0
outer loop
vertex 28.5 -5.400000095367432 8.75
vertex 28.5 -6.599999904632568 10.25
vertex 28.5 -6.599999904632568 8.75
endloop
endfacet
facet normal 1.0 0.0 0.0
outer loop
vertex 28.5 -5.400000095367432 10.25
vertex 28.5 -6.599999904632568 10.25
vertex 28.5 -5.400000095367432 8.75
endloop
endfacet
facet normal -0.9999999999999999 0.0 -0.0
outer loop
vertex -28.5 -1.600000023841858 10.25
vertex -28.5 -0.4000000059604645 10.25
vertex -28.5 -1.600000023841858 8.75
endloop
endfacet
facet normal -0.0 -1.0 -0.0
outer loop
vertex 28.5 -1.600000023841858 8.75
vertex -28.5 -1.600000023841858 10.25
vertex -28.5 -1.600000023841858 8.75
endloop
endfacet
facet normal -0.9999999999999999 0.0 0.0
outer loop
vertex -28.5 -1.600000023841858 8.75
vertex -28.5 -0.4000000059604645 10.25
vertex -28.5 -0.4000000059604645 8.75
endloop
endfacet
facet normal -0.0 -0.0 -1.0
outer loop
vertex -28.5 -0.4000000059604645 8.75
vertex 28.5 -1.600000023841858 8.75
vertex -28.5 -1.600000023841858 8.75
endloop
endfacet
facet normal 0.0 -0.0 1.0
outer loop
vertex -28.5 -1.600000023841858 10.25
vertex 28.5 -0.4000000059604645 10.25
vertex -28.5 -0.4000000059604645 10.25
endloop
endfacet
facet normal -0.0 -1.0 -0.0
outer loop
vertex 28.5 -1.600000023841858 10.25
vertex -28.5 -1.600000023841858 10.25
vertex 28.5 -1.600000023841858 8.75
endloop
endfacet
facet normal 0.0 -0.0 1.0
outer loop
vertex 28.5 -1.600000023841858 10.25
vertex 28.5 -0.4000000059604645 10.25
vertex -28.5 -1.600000023841858 10.25
endloop
endfacet
facet normal -0.0 1.0 0.0
outer loop
vertex -28.5 -0.4000000059604645 10.25
vertex 28.5 -0.4000000059604645 10.25
vertex -28.5 -0.4000000059604645 8.75
endloop
endfacet
facet normal -0.0 -0.0 -1.0
outer loop
vertex 28.5 -0.4000000059604645 8.75
vertex 28.5 -1.600000023841858 8.75
vertex -28.5 -0.4000000059604645 8.75
endloop
endfacet
facet normal -0.0 1.0 0.0
outer loop
vertex -28.5 -0.4000000059604645 8.75
vertex 28.5 -0.4000000059604645 10.25
vertex 28.5 -0.4000000059604645 8.75
endloop
endfacet
facet normal 0.9999999999999999 0.0 0.0
outer loop
vertex 28.5 -0.4000000059604645 8.75
vertex 28.5 -1.600000023841858 10.25
vertex 28.5 -1.600000023841858 8.75
endloop
endfacet
facet normal 0.9999999999999999 0.0 0.0
outer loop
vertex 28.5 -0.4000000059604645 10.25
vertex 28.5 -1.600000023841858 10.25
vertex 28.5 -0.4000000059604645 8.75
endloop
endfacet
facet normal -1.0 0.0 -0.0
outer loop
vertex -28.5 3.4000000953674316 10.25
vertex -28.5 4.599999904632568 10.25
vertex -28.5 3.4000000953674316 8.75
endloop
endfacet
facet normal -0.0 -1.0 -0.0
outer loop
vertex 28.5 3.4000000953674316 8.75
vertex -28.5 3.4000000953674316 10.25
vertex -28.5 3.4000000953674316 8.75
endloop
endfacet
facet normal -1.0 0.0 0.0
outer loop
vertex -28.5 3.4000000953674316 8.75
vertex -28.5 4.599999904632568 10.25
vertex -28.5 4.599999904632568 8.75
endloop
endfacet
facet normal -0.0 -0.0 -1.0
outer loop
vertex -28.5 4.599999904632568 8.75
vertex 28.5 3.4000000953674316 8.75
vertex -28.5 3.4000000953674316 8.75
endloop
endfacet
facet normal 0.0 -0.0 1.0
outer loop
vertex -28.5 3.4000000953674316 10.25
vertex 28.5 4.599999904632568 10.25
vertex -28.5 4.599999904632568 10.25
endloop
endfacet
facet normal -0.0 -1.0 -0.0
outer loop
vertex 28.5 3.4000000953674316 10.25
vertex -28.5 3.4000000953674316 10.25
vertex 28.5 3.4000000953674316 8.75
endloop
endfacet
facet normal 0.0 -0.0 1.0
outer loop
vertex 28.5 3.4000000953674316 10.25
vertex 28.5 4.599999904632568 10.25
vertex -28.5 3.4000000953674316 10.25
endloop
endfacet
facet normal -0.0 1.0 0.0
outer loop
vertex -28.5 4.599999904632568 10.25
vertex 28.5 4.599999904632568 10.25
vertex -28.5 4.599999904632568 8.75
endloop
endfacet
facet normal -0.0 -0.0 -1.0
outer loop
vertex 28.5 4.599999904632568 8.75
vertex 28.5 3.4000000953674316 8.75
vertex -28.5 4.599999904632568 8.75
endloop
endfacet
facet normal -0.0 1.0 0.0
outer loop
vertex -28.5 4.599999904632568 8.75
vertex 28.5 4.599999904632568 10.25
vertex 28.5 4.599999904632568 8.75
endloop
endfacet
facet normal 1.0 0.0 0.0
outer loop
vertex 28.5 4.599999904632568 8.75
vertex 28.5 3.4000000953674316 10.25
vertex 28.5 3.4000000953674316 8.75
endloop
endfacet
facet normal 1.0 0.0 0.0
outer loop
vertex 28.5 4.599999904632568 10.25
vertex 28.5 3.4000000953674316 10.25
vertex 28.5 4.599999904632568 8.75
endloop
endfacet
facet normal -1.0 0.0 -0.0
outer loop
vertex -28.5 8.399999618530273 10.25
vertex -28.5 9.600000381469727 10.25
vertex -28.5 8.399999618530273 8.75
endloop
endfacet
facet normal -0.0 -1.0 -0.0
outer loop
vertex 28.5 8.399999618530273 8.75
vertex -28.5 8.399999618530273 10.25
vertex -28.5 8.399999618530273 8.75
endloop
endfacet
facet normal -1.0 0.0 0.0
outer loop
vertex -28.5 8.399999618530273 8.75
vertex -28.5 9.600000381469727 10.25
vertex -28.5 9.600000381469727 8.75
endloop
endfacet
facet normal -0.0 -0.0 -1.0
outer loop
vertex -28.5 9.600000381469727 8.75
vertex 28.5 8.399999618530273 8.75
vertex -28.5 8.399999618530273 8.75
endloop
endfacet
facet normal 0.0 -0.0 1.0
outer loop
vertex -28.5 8.399999618530273 10.25
vertex 28.5 9.600000381469727 10.25
vertex -28.5 9.600000381469727 10.25
endloop
endfacet
facet normal -0.0 -1.0 -0.0
outer loop
vertex 28.5 8.399999618530273 10.25
vertex -28.5 8.399999618530273 10.25
vertex 28.5 8.399999618530273 8.75
endloop
endfacet
facet normal 0.0 -0.0 1.0
outer loop
vertex 28.5 8.399999618530273 10.25
vertex 28.5 9.600000381469727 10.25
vertex -28.5 8.399999618530273 10.25
endloop
endfacet
facet normal -0.0 1.0 0.0
outer loop
vertex -28.5 9.600000381469727 10.25
vertex 28.5 9.600000381469727 10.25
vertex -28.5 9.600000381469727 8.75
endloop
endfacet
facet normal -0.0 -0.0 -1.0
outer loop
vertex 28.5 9.600000381469727 8.75
vertex 28.5 8.399999618530273 8.75
vertex -28.5 9.600000381469727 8.75
endloop
endfacet
facet normal -0.0 1.0 0.0
outer loop
vertex -28.5 9.600000381469727 8.75
vertex 28.5 9.600000381469727 10.25
vertex 28.5 9.600000381469727 8.75
endloop
endfacet
facet normal 1.0 0.0 0.0
outer loop
vertex 28.5 9.600000381469727 8.75
vertex 28.5 8.399999618530273 10.25
vertex 28.5 8.399999618530273 8.75
endloop
endfacet
facet normal 1.0 0.0 0.0
outer loop
vertex 28.5 9.600000381469727 10.25
vertex 28.5 8.399999618530273 10.25
vertex 28.5 9.600000381469727 8.75
endloop
endfacet
facet normal -1.0 0.0 -0.0
outer loop
vertex -28.5 13.399999618530273 10.25
vertex -28.5 14.600000381469727 10.25
vertex -28.5 13.399999618530273 8.75
endloop
endfacet
facet normal -0.0 -1.0 -0.0
outer loop
vertex 28.5 13.399999618530273 8.75
vertex -28.5 13.399999618530273 10.25
vertex -28.5 13.399999618530273 8.75
endloop
endfacet
facet normal -1.0 0.0 0.0
outer loop
vertex -28.5 13.399999618530273 8.75
vertex -28.5 14.600000381469727 10.25
vertex -28.5 14.600000381469727 8.75
endloop
endfacet
facet normal -0.0 -0.0 -1.0
outer loop
vertex -28.5 14.600000381469727 8.75
vertex 28.5 13.399999618530273 8.75
vertex -28.5 13.399999618530273 8.75
endloop
endfacet
facet normal 0.0 -0.0 1.0
outer loop
vertex -28.5 13.399999618530273 10.25
vertex 28.5 14.600000381469727 10.25
vertex -28.5 14.600000381469727 10.25
endloop
endfacet
facet normal -0.0 -1.0 -0.0
outer loop
vertex 28.5 13.399999618530273 10.25
vertex -28.5 13.399999618530273 10.25
vertex 28.5 13.399999618530273 8.75
endloop
endfacet
facet normal 0.0 -0.0 1.0
outer loop
vertex 28.5 13.399999618530273 10.25
vertex 28.5 14.600000381469727 10.25
vertex -28.5 13.399999618530273 10.25
endloop
endfacet
facet normal -0.0 1.0 0.0
outer loop
vertex -28.5 14.600000381469727 10.25
vertex 28.5 14.600000381469727 10.25
vertex -28.5 14.600000381469727 8.75
endloop
endfacet
facet normal -0.0 -0.0 -1.0
outer loop
vertex 28.5 14.600000381469727 8.75
vertex 28.5 13.399999618530273 8.75
vertex -28.5 14.600000381469727 8.75
endloop
endfacet
facet normal -0.0 1.0 0.0
outer loop
vertex -28.5 14.600000381469727 8.75
vertex 28.5 14.600000381469727 10.25
vertex 28.5 14.600000381469727 8.75
endloop
endfacet
facet normal 1.0 0.0 0.0
outer loop
vertex 28.5 14.600000381469727 8.75
vertex 28.5 13.399999618530273 10.25
vertex 28.5 13.399999618530273 8.75
endloop
endfacet
facet normal 1.0 0.0 0.0
outer loop
vertex 28.5 14.600000381469727 10.25
vertex 28.5 13.399999618530273 10.25
vertex 28.5 14.600000381469727 8.75
endloop
endfacet

endsolid
