solid idm_fake_sensor_base.stl
facet normal -0.9999999999999999 0.0 -0.0
outer loop
vertex -35.5 -24.5 1.0
vertex -35.5 24.5 1.0
vertex -35.5 -24.5 -1.0
endloop
endfacet
facet normal -0.0 -1.0 -0.0
outer loop
vertex 35.5 -24.5 -1.0
vertex -35.5 -24.5 1.0
vertex -35.5 -24.5 -1.0
endloop
endfacet
facet normal -0.9999999999999999 0.0 0.0
outer loop
vertex -35.5 -24.5 -1.0
vertex -35.5 24.5 1.0
vertex -35.5 24.5 -1.0
endloop
endfacet
facet normal -0.0 -0.0 -1.0
outer loop
vertex -35.5 24.5 -1.0
vertex 35.5 -24.5 -1.0
vertex -35.5 -24.5 -1.0
endloop
endfacet
facet normal 0.0 -0.0 1.0
outer loop
vertex -35.5 -24.5 1.0
vertex 35.5 24.5 1.0
vertex -35.5 24.5 1.0
endloop
endfacet
facet normal -0.0 -1.0 -0.0
outer loop
vertex 35.5 -24.5 1.0
vertex -35.5 -24.5 1.0
vertex 35.5 -24.5 -1.0
endloop
endfacet
facet normal 0.0 -0.0 1.0
outer loop
vertex 35.5 -24.5 1.0
vertex 35.5 24.5 1.0
vertex -35.5 -24.5 1.0
endloop
endfacet
facet normal -0.0 1.0 0.0
outer loop
vertex -35.5 24.5 1.0
vertex 35.5 24.5 1.0
vertex -35.5 24.5 -1.0
endloop
endfacet
facet normal -0.0 -0.0 -1.0
outer loop
vertex 35.5 24.5 -1.0
vertex 35.5 -24.5 -1.0
vertex -35.5 24.5 -1.0
endloop
endfacet
facet normal -0.0 1.0 0.0
outer loop
vertex -35.5 24.5 -1.0
vertex 35.5 24.5 1.0
vertex 35.5 24.5 -1.0
endloop
endfacet
facet normal 0.9999999999999999 0.0 0.0
outer loop
vertex 35.5 24.5 -1.0
vertex 35.5 -24.5 1.0
vertex 35.5 -24.5 -1.0
endloop
endfacet
facet normal 0.9999999999999999 0.0 0.0
outer loop
vertex 35.5 24.5 1.0
vertex 35.5 -24.5 1.0
vertex 35.5 24.5 -1.0
endloop
endfacet
facet normal -1.0 0.0 -0.0
outer loop
vertex -35.5 -24.5 8.0
vertex -35.5 24.5 8.0
vertex -35.5 -24.5 -1.0
endloop
endfacet
facet normal -0.0 -1.0 -0.0
outer loop
vertex -33.5 -24.5 -1.0
vertex -35.5 -24.5 8.0
vertex -35.5 -24.5 -1.0
endloop
endfacet
facet normal -1.0 0.0 0.0
outer loop
vertex -35.5 -24.5 -1.0
vertex -35.5 24.5 8.0
vertex -35.5 24.5 -1.0
endloop
endfacet
facet normal -0.0 -0.0 -0.9999999999999999
outer loop
vertex -35.5 24.5 -1.0
vertex -33.5 -24.5 -1.0
vertex -35.5 -24.5 -1.0
endloop
endfacet
facet normal 0.0 -0.0 0.9999999999999999
outer loop
vertex -35.5 -24.5 8.0
vertex -33.5 24.5 8.0
vertex -35.5 24.5 8.0
endloop
endfacet
facet normal -0.0 -1.0 -0.0
outer loop
vertex -33.5 -24.5 8.0
vertex -35.5 -24.5 8.0
vertex -33.5 -24.5 -1.0
endloop
endfacet
facet normal 0.0 -0.0 0.9999999999999999
outer loop
vertex -33.5 -24.5 8.0
vertex -33.5 24.5 8.0
vertex -35.5 -24.5 8.0
endloop
endfacet
facet normal -0.0 1.0 0.0
outer loop
vertex -35.5 24.5 8.0
vertex -33.5 24.5 8.0
vertex -35.5 24.5 -1.0
endloop
endfacet
facet normal -0.0 -0.0 -0.9999999999999999
outer loop
vertex -33.5 24.5 -1.0
vertex -33.5 -24.5 -1.0
vertex -35.5 24.5 -1.0
endloop
endfacet
facet normal -0.0 1.0 0.0
outer loop
vertex -35.5 24.5 -1.0
vertex -33.5 24.5 8.0
vertex -33.5 24.5 -1.0
endloop
endfacet
facet normal 1.0 0.0 0.0
outer loop
vertex -33.5 24.5 -1.0
vertex -33.5 -24.5 8.0
vertex -33.5 -24.5 -1.0
endloop
endfacet
facet normal 1.0 0.0 0.0
outer loop
vertex -33.5 24.5 8.0
vertex -33.5 -24.5 8.0
vertex -33.5 24.5 -1.0
endloop
endfacet
facet normal -1.0 0.0 -0.0
outer loop
vertex 33.5 -24.5 8.0
vertex 33.5 24.5 8.0
vertex 33.5 -24.5 -1.0
endloop
endfacet
facet normal -0.0 -1.0 -0.0
outer loop
vertex 35.5 -24.5 -1.0
vertex 33.5 -24.5 8.0
vertex 33.5 -24.5 -1.0
endloop
endfacet
facet normal -1.0 0.0 0.0
outer loop
vertex 33.5 -24.5 -1.0
vertex 33.5 24.5 8.0
vertex 33.5 24.5 -1.0
endloop
endfacet
facet normal -0.0 -0.0 -0.9999999999999999
outer loop
vertex 33.5 24.5 -1.0
vertex 35.5 -24.5 -1.0
vertex 33.5 -24.5 -1.0
endloop
endfacet
facet normal 0.0 -0.0 0.9999999999999999
outer loop
vertex 33.5 -24.5 8.0
vertex 35.5 24.5 8.0
vertex 33.5 24.5 8.0
endloop
endfacet
facet normal -0.0 -1.0 -0.0
outer loop
vertex 35.5 -24.5 8.0
vertex 33.5 -24.5 8.0
vertex 35.5 -24.5 -1.0
endloop
endfacet
facet normal 0.0 -0.0 0.9999999999999999
outer loop
vertex 35.5 -24.5 8.0
vertex 35.5 24.5 8.0
vertex 33.5 -24.5 8.0
endloop
endfacet
facet normal -0.0 1.0 0.0
outer loop
vertex 33.5 24.5 8.0
vertex 35.5 24.5 8.0
vertex 33.5 24.5 -1.0
endloop
endfacet
facet normal -0.0 -0.0 -0.9999999999999999
outer loop
vertex 35.5 24.5 -1.0
vertex 35.5 -24.5 -1.0
vertex 33.5 24.5 -1.0
endloop
endfacet
facet normal -0.0 1.0 0.0
outer loop
vertex 33.5 24.5 -1.0
vertex 35.5 24.5 8.0
vertex 35.5 24.5 -1.0
endloop
endfacet
facet normal 1.0 0.0 0.0
outer loop
vertex 35.5 24.5 -1.0
vertex 35.5 -24.5 8.0
vertex 35.5 -24.5 -1.0
endloop
endfacet
facet normal 1.0 0.0 0.0
outer loop
vertex 35.5 24.5 8.0
vertex 35.5 -24.5 8.0
vertex 35.5 24.5 -1.0
endloop
endfacet
facet normal -1.0 0.0 -0.0
outer loop
vertex -33.5 -24.5 8.0
vertex -33.5 -22.5 8.0
vertex -33.5 -24.5 -1.0
endloop
endfacet
facet normal -0.0 -1.0 -0.0
outer loop
vertex 33.5 -24.5 -1.0
vertex -33.5 -24.5 8.0
vertex -33.5 -24.5 -1.0
endloop
endfacet
facet normal -1.0 0.0 0.0
outer loop
vertex -33.5 -24.5 -1.0
vertex -33.5 -22.5 8.0
vertex -33.5 -22.5 -1.0
endloop
endfacet
facet normal -0.0 -0.0 -1.0
outer loop
vertex -33.5 -22.5 -1.0
vertex 33.5 -24.5 -1.0
vertex -33.5 -24.5 -1.0
endloop
endfacet
facet normal 0.0 -0.0 1.0
outer loop
vertex -33.5 -24.5 8.0
vertex 33.5 -22.5 8.0
vertex -33.5 -22.5 8.0
endloop
endfacet
facet normal -0.0 -1.0 -0.0
outer loop
vertex 33.5 -24.5 8.0
vertex -33.5 -24.5 8.0
vertex 33.5 -24.5 -1.0
endloop
endfacet
facet normal 0.0 -0.0 1.0
outer loop
vertex 33.5 -24.5 8.0
vertex 33.5 -22.5 8.0
vertex -33.5 -24.5 8.0
endloop
endfacet
facet normal -0.0 1.0 0.0
outer loop
vertex -33.5 -22.5 8.0
vertex 33.5 -22.5 8.0
vertex -33.5 -22.5 -1.0
endloop
endfacet
facet normal -0.0 -0.0 -1.0
outer loop
vertex 33.5 -22.5 -1.0
vertex 33.5 -24.5 -1.0
vertex -33.5 -22.5 -1.0
endloop
endfacet
facet normal -0.0 1.0 0.0
outer loop
vertex -33.5 -22.5 -1.0
vertex 33.5 -22.5 8.0
vertex 33.5 -22.5 -1.0
endloop
endfacet
facet normal 1.0 0.0 0.0
outer loop
vertex 33.5 -22.5 -1.0
vertex 33.5 -24.5 8.0
vertex 33.5 -24.5 -1.0
endloop
endfacet
facet normal 1.0 0.0 0.0
outer loop
vertex 33.5 -22.5 8.0
vertex 33.5 -24.5 8.0
vertex 33.5 -22.5 -1.0
endloop
endfacet
facet normal -1.0 0.0 -0.0
outer loop
vertex -33.5 22.5 8.0
vertex -33.5 24.5 8.0
vertex -33.5 22.5 -1.0
endloop
endfacet
facet normal -0.0 -1.0 -0.0
outer loop
vertex 33.5 22.5 -1.0
vertex -33.5 22.5 8.0
vertex -33.5 22.5 -1.0
endloop
endfacet
facet normal -1.0 0.0 0.0
outer loop
vertex -33.5 22.5 -1.0
vertex -33.5 24.5 8.0
vertex -33.5 24.5 -1.0
endloop
endfacet
facet normal -0.0 -0.0 -1.0
outer loop
vertex -33.5 24.5 -1.0
vertex 33.5 22.5 -1.0
vertex -33.5 22.5 -1.0
endloop
endfacet
facet normal 0.0 -0.0 1.0
outer loop
vertex -33.5 22.5 8.0
vertex 33.5 24.5 8.0
vertex -33.5 24.5 8.0
endloop
endfacet
facet normal -0.0 -1.0 -0.0
outer loop
vertex 33.5 22.5 8.0
vertex -33.5 22.5 8.0
vertex 33.5 22.5 -1.0
endloop
endfacet
facet normal 0.0 -0.0 1.0
outer loop
vertex 33.5 22.5 8.0
vertex 33.5 24.5 8.0
vertex -33.5 22.5 8.0
endloop
endfacet
facet normal -0.0 1.0 0.0
outer loop
vertex -33.5 24.5 8.0
vertex 33.5 24.5 8.0
vertex -33.5 24.5 -1.0
endloop
endfacet
facet normal -0.0 -0.0 -1.0
outer loop
vertex 33.5 24.5 -1.0
vertex 33.5 22.5 -1.0
vertex -33.5 24.5 -1.0
endloop
endfacet
facet normal -0.0 1.0 0.0
outer loop
vertex -33.5 24.5 -1.0
vertex 33.5 24.5 8.0
vertex 33.5 24.5 -1.0
endloop
endfacet
facet normal 1.0 0.0 0.0
outer loop
vertex 33.5 24.5 -1.0
vertex 33.5 22.5 8.0
vertex 33.5 22.5 -1.0
endloop
endfacet
facet normal 1.0 0.0 0.0
outer loop
vertex 33.5 24.5 8.0
vertex 33.5 22.5 8.0
vertex 33.5 24.5 -1.0
endloop
endfacet

endsolid
