solid idm-roomsensor-classic_lid.stl
facet normal -1.0 0.0 -0.0
outer loop
vertex -22.5 -17.5 11.0
vertex -22.5 17.5 11.0
vertex -22.5 -17.5 9.0
endloop
endfacet
facet normal -0.0 -1.0 -0.0
outer loop
vertex 22.5 -17.5 9.0
vertex -22.5 -17.5 11.0
vertex -22.5 -17.5 9.0
endloop
endfacet
facet normal -1.0 0.0 0.0
outer loop
vertex -22.5 -17.5 9.0
vertex -22.5 17.5 11.0
vertex -22.5 17.5 9.0
endloop
endfacet
facet normal -0.0 -0.0 -1.0
outer loop
vertex -22.5 17.5 9.0
vertex 22.5 -17.5 9.0
vertex -22.5 -17.5 9.0
endloop
endfacet
facet normal 0.0 -0.0 1.0
outer loop
vertex -22.5 -17.5 11.0
vertex 22.5 17.5 11.0
vertex -22.5 17.5 11.0
endloop
endfacet
facet normal -0.0 -1.0 -0.0
outer loop
vertex 22.5 -17.5 11.0
vertex -22.5 -17.5 11.0
vertex 22.5 -17.5 9.0
endloop
endfacet
facet normal 0.0 -0.0 1.0
outer loop
vertex 22.5 -17.5 11.0
vertex 22.5 17.5 11.0
vertex -22.5 -17.5 11.0
endloop
endfacet
facet normal -0.0 1.0 0.0
outer loop
vertex -22.5 17.5 11.0
vertex 22.5 17.5 11.0
vertex -22.5 17.5 9.0
endloop
endfacet
facet normal -0.0 -0.0 -1.0
outer loop
vertex 22.5 17.5 9.0
vertex 22.5 -17.5 9.0
vertex -22.5 17.5 9.0
endloop
endfacet
facet normal -0.0 1.0 0.0
outer loop
vertex -22.5 17.5 9.0
vertex 22.5 17.5 11.0
vertex 22.5 17.5 9.0
endloop
endfacet
facet normal 1.0 0.0 0.0
outer loop
vertex 22.5 17.5 9.0
vertex 22.5 -17.5 11.0
vertex 22.5 -17.5 9.0
endloop
endfacet
facet normal 1.0 0.0 0.0
outer loop
vertex 22.5 17.5 11.0
vertex 22.5 -17.5 11.0
vertex 22.5 17.5 9.0
endloop
endfacet
facet normal -1.0 0.0 -0.0
outer loop
vertex -22.5 -17.5 11.0
vertex -22.5 17.5 11.0
vertex -22.5 -17.5 -1.0
endloop
endfacet
facet normal -0.0 -1.0 -0.0
outer loop
vertex -20.5 -17.5 -1.0
vertex -22.5 -17.5 11.0
vertex -22.5 -17.5 -1.0
endloop
endfacet
facet normal -1.0 0.0 0.0
outer loop
vertex -22.5 -17.5 -1.0
vertex -22.5 17.5 11.0
vertex -22.5 17.5 -1.0
endloop
endfacet
facet normal -0.0 -0.0 -1.0
outer loop
vertex -22.5 17.5 -1.0
vertex -20.5 -17.5 -1.0
vertex -22.5 -17.5 -1.0
endloop
endfacet
facet normal 0.0 -0.0 1.0
outer loop
vertex -22.5 -17.5 11.0
vertex -20.5 17.5 11.0
vertex -22.5 17.5 11.0
endloop
endfacet
facet normal -0.0 -1.0 -0.0
outer loop
vertex -20.5 -17.5 11.0
vertex -22.5 -17.5 11.0
vertex -20.5 -17.5 -1.0
endloop
endfacet
facet normal 0.0 -0.0 1.0
outer loop
vertex -20.5 -17.5 11.0
vertex -20.5 17.5 11.0
vertex -22.5 -17.5 11.0
endloop
endfacet
facet normal -0.0 1.0 0.0
outer loop
vertex -22.5 17.5 11.0
vertex -20.5 17.5 11.0
vertex -22.5 17.5 -1.0
endloop
endfacet
facet normal -0.0 -0.0 -1.0
outer loop
vertex -20.5 17.5 -1.0
vertex -20.5 -17.5 -1.0
vertex -22.5 17.5 -1.0
endloop
endfacet
facet normal -0.0 1.0 0.0
outer loop
vertex -22.5 17.5 -1.0
vertex -20.5 17.5 11.0
vertex -20.5 17.5 -1.0
endloop
endfacet
facet normal 1.0 0.0 0.0
outer loop
vertex -20.5 17.5 -1.0
vertex -20.5 -17.5 11.0
vertex -20.5 -17.5 -1.0
endloop
endfacet
facet normal 1.0 0.0 0.0
outer loop
vertex -20.5 17.5 11.0
vertex -20.5 -17.5 11.0
vertex -20.5 17.5 -1.0
endloop
endfacet
facet normal -1.0 0.0 -0.0
outer loop
vertex 20.5 -17.5 11.0
vertex 20.5 17.5 11.0
vertex 20.5 -17.5 -1.0
endloop
endfacet
facet normal -0.0 -1.0 -0.0
outer loop
vertex 22.5 -17.5 -1.0
vertex 20.5 -17.5 11.0
vertex 20.5 -17.5 -1.0
endloop
endfacet
facet normal -1.0 0.0 0.0
outer loop
vertex 20.5 -17.5 -1.0
vertex 20.5 17.5 11.0
vertex 20.5 17.5 -1.0
endloop
endfacet
facet normal -0.0 -0.0 -1.0
outer loop
vertex 20.5 17.5 -1.0
vertex 22.5 -17.5 -1.0
vertex 20.5 -17.5 -1.0
endloop
endfacet
facet normal 0.0 -0.0 1.0
outer loop
vertex 20.5 -17.5 11.0
vertex 22.5 17.5 11.0
vertex 20.5 17.5 11.0
endloop
endfacet
facet normal -0.0 -1.0 -0.0
outer loop
vertex 22.5 -17.5 11.0
vertex 20.5 -17.5 11.0
vertex 22.5 -17.5 -1.0
endloop
endfacet
facet normal 0.0 -0.0 1.0
outer loop
vertex 22.5 -17.5 11.0
vertex 22.5 17.5 11.0
vertex 20.5 -17.5 11.0
endloop
endfacet
facet normal -0.0 1.0 0.0
outer loop
vertex 20.5 17.5 11.0
vertex 22.5 17.5 11.0
vertex 20.5 17.5 -1.0
endloop
endfacet
facet normal -0.0 -0.0 -1.0
outer loop
vertex 22.5 17.5 -1.0
vertex 22.5 -17.5 -1.0
vertex 20.5 17.5 -1.0
endloop
endfacet
facet normal -0.0 1.0 0.0
outer loop
vertex 20.5 17.5 -1.0
vertex 22.5 17.5 11.0
vertex 22.5 17.5 -1.0
endloop
endfacet
facet normal 1.0 0.0 0.0
outer loop
vertex 22.5 17.5 -1.0
vertex 22.5 -17.5 11.0
vertex 22.5 -17.5 -1.0
endloop
endfacet
facet normal 1.0 0.0 0.0
outer loop
vertex 22.5 17.5 11.0
vertex 22.5 -17.5 11.0
vertex 22.5 17.5 -1.0
endloop
endfacet
facet normal -1.0 0.0 -0.0
outer loop
vertex -20.5 -17.5 11.0
vertex -20.5 -15.5 11.0
vertex -20.5 -17.5 -1.0
endloop
endfacet
facet normal -0.0 -1.0 -0.0
outer loop
vertex 20.5 -17.5 -1.0
vertex -20.5 -17.5 11.0
vertex -20.5 -17.5 -1.0
endloop
endfacet
facet normal -1.0 0.0 0.0
outer loop
vertex -20.5 -17.5 -1.0
vertex -20.5 -15.5 11.0
vertex -20.5 -15.5 -1.0
endloop
endfacet
facet normal -0.0 -0.0 -1.0
outer loop
vertex -20.5 -15.5 -1.0
vertex 20.5 -17.5 -1.0
vertex -20.5 -17.5 -1.0
endloop
endfacet
facet normal 0.0 -0.0 1.0
outer loop
vertex -20.5 -17.5 11.0
vertex 20.5 -15.5 11.0
vertex -20.5 -15.5 11.0
endloop
endfacet
facet normal -0.0 -1.0 -0.0
outer loop
vertex 20.5 -17.5 11.0
vertex -20.5 -17.5 11.0
vertex 20.5 -17.5 -1.0
endloop
endfacet
facet normal 0.0 -0.0 1.0
outer loop
vertex 20.5 -17.5 11.0
vertex 20.5 -15.5 11.0
vertex -20.5 -17.5 11.0
endloop
endfacet
facet normal -0.0 1.0 0.0
outer loop
vertex -20.5 -15.5 11.0
vertex 20.5 -15.5 11.0
vertex -20.5 -15.5 -1.0
endloop
endfacet
facet normal -0.0 -0.0 -1.0
outer loop
vertex 20.5 -15.5 -1.0
vertex 20.5 -17.5 -1.0
vertex -20.5 -15.5 -1.0
endloop
endfacet
facet normal -0.0 1.0 0.0
outer loop
vertex -20.5 -15.5 -1.0
vertex 20.5 -15.5 11.0
vertex 20.5 -15.5 -1.0
endloop
endfacet
facet normal 1.0 0.0 0.0
outer loop
vertex 20.5 -15.5 -1.0
vertex 20.5 -17.5 11.0
vertex 20.5 -17.5 -1.0
endloop
endfacet
facet normal 1.0 0.0 0.0
outer loop
vertex 20.5 -15.5 11.0
vertex 20.5 -17.5 11.0
vertex 20.5 -15.5 -1.0
endloop
endfacet
facet normal -1.0 0.0 -0.0
outer loop
vertex -20.5 15.5 11.0
vertex -20.5 17.5 11.0
vertex -20.5 15.5 -1.0
endloop
endfacet
facet normal -0.0 -1.0 -0.0
outer loop
vertex 20.5 15.5 -1.0
vertex -20.5 15.5 11.0
vertex -20.5 15.5 -1.0
endloop
endfacet
facet normal -1.0 0.0 0.0
outer loop
vertex -20.5 15.5 -1.0
vertex -20.5 17.5 11.0
vertex -20.5 17.5 -1.0
endloop
endfacet
facet normal -0.0 -0.0 -1.0
outer loop
vertex -20.5 17.5 -1.0
vertex 20.5 15.5 -1.0
vertex -20.5 15.5 -1.0
endloop
endfacet
facet normal 0.0 -0.0 1.0
outer loop
vertex -20.5 15.5 11.0
vertex 20.5 17.5 11.0
vertex -20.5 17.5 11.0
endloop
endfacet
facet normal -0.0 -1.0 -0.0
outer loop
vertex 20.5 15.5 11.0
vertex -20.5 15.5 11.0
vertex 20.5 15.5 -1.0
endloop
endfacet
facet normal 0.0 -0.0 1.0
outer loop
vertex 20.5 15.5 11.0
vertex 20.5 17.5 11.0
vertex -20.5 15.5 11.0
endloop
endfacet
facet normal -0.0 1.0 0.0
outer loop
vertex -20.5 17.5 11.0
vertex 20.5 17.5 11.0
vertex -20.5 17.5 -1.0
endloop
endfacet
facet normal -0.0 -0.0 -1.0
outer loop
vertex 20.5 17.5 -1.0
vertex 20.5 15.5 -1.0
vertex -20.5 17.5 -1.0
endloop
endfacet
facet normal -0.0 1.0 0.0
outer loop
vertex -20.5 17.5 -1.0
vertex 20.5 17.5 11.0
vertex 20.5 17.5 -1.0
endloop
endfacet
facet normal 1.0 0.0 0.0
outer loop
vertex 20.5 17.5 -1.0
vertex 20.5 15.5 11.0
vertex 20.5 15.5 -1.0
endloop
endfacet
facet normal 1.0 0.0 0.0
outer loop
vertex 20.5 17.5 11.0
vertex 20.5 15.5 11.0
vertex 20.5 17.5 -1.0
endloop
endfacet
facet normal -1.0 0.0 -0.0
outer loop
vertex -18.5 -11.600000381469727 10.25
vertex -18.5 -10.399999618530273 10.25
vertex -18.5 -11.600000381469727 8.75
endloop
endfacet
facet normal -0.0 -1.0 -0.0
outer loop
vertex 18.5 -11.600000381469727 8.75
vertex -18.5 -11.600000381469727 10.25
vertex -18.5 -11.600000381469727 8.75
endloop
endfacet
facet normal -1.0 0.0 0.0
outer loop
vertex -18.5 -11.600000381469727 8.75
vertex -18.5 -10.399999618530273 10.25
vertex -18.5 -10.399999618530273 8.75
endloop
endfacet
facet normal -0.0 -0.0 -1.0
outer loop
vertex -18.5 -10.399999618530273 8.75
vertex 18.5 -11.600000381469727 8.75
vertex -18.5 -11.600000381469727 8.75
endloop
endfacet
facet normal 0.0 -0.0 1.0
outer loop
vertex -18.5 -11.600000381469727 10.25
vertex 18.5 -10.399999618530273 10.25
vertex -18.5 -10.399999618530273 10.25
endloop
endfacet
facet normal -0.0 -1.0 -0.0
outer loop
vertex 18.5 -11.600000381469727 10.25
vertex -18.5 -11.600000381469727 10.25
vertex 18.5 -11.600000381469727 8.75
endloop
endfacet
facet normal 0.0 -0.0 1.0
outer loop
vertex 18.5 -11.600000381469727 10.25
vertex 18.5 -10.399999618530273 10.25
vertex -18.5 -11.600000381469727 10.25
endloop
endfacet
facet normal -0.0 1.0 0.0
outer loop
vertex -18.5 -10.399999618530273 10.25
vertex 18.5 -10.399999618530273 10.25
vertex -18.5 -10.399999618530273 8.75
endloop
endfacet
facet normal -0.0 -0.0 -1.0
outer loop
vertex 18.5 -10.399999618530273 8.75
vertex 18.5 -11.600000381469727 8.75
vertex -18.5 -10.399999618530273 8.75
endloop
endfacet
facet normal -0.0 1.0 0.0
outer loop
vertex -18.5 -10.399999618530273 8.75
vertex 18.5 -10.399999618530273 10.25
vertex 18.5 -10.399999618530273 8.75
endloop
endfacet
facet normal 1.0 0.0 0.0
outer loop
vertex 18.5 -10.399999618530273 8.75
vertex 18.5 -11.600000381469727 10.25
vertex 18.5 -11.600000381469727 8.75
endloop
endfacet
facet normal 1.0 0.0 0.0
outer loop
vertex 18.5 -10.399999618530273 10.25
vertex 18.5 -11.600000381469727 10.25
vertex 18.5 -10.399999618530273 8.75
endloop
endfacet
facet normal -1.0 0.0 -0.0
outer loop
vertex -18.5 -6.599999904632568 10.25
vertex -18.5 -5.400000095367432 10.25
vertex -18.5 -6.599999904632568 8.75
endloop
endfacet
facet normal -0.0 -1.0 -0.0
outer loop
vertex 18.5 -6.599999904632568 8.75
vertex -18.5 -6.599999904632568 10.25
vertex -18.5 -6.599999904632568 8.75
endloop
endfacet
facet normal -1.0 0.0 0.0
outer loop
vertex -18.5 -6.599999904632568 8.75
vertex -18.5 -5.400000095367432 10.25
vertex -18.5 -5.400000095367432 8.75
endloop
endfacet
facet normal -0.0 -0.0 -1.0
outer loop
vertex -18.5 -5.400000095367432 8.75
vertex 18.5 -6.599999904632568 8.75
vertex -18.5 -6.599999904632568 8.75
endloop
endfacet
facet normal 0.0 -0.0 1.0
outer loop
vertex -18.5 -6.599999904632568 10.25
vertex 18.5 -5.400000095367432 10.25
vertex -18.5 -5.400000095367432 10.25
endloop
endfacet
facet normal -0.0 -1.0 -0.0
outer loop
vertex 18.5 -6.599999904632568 10.25
vertex -18.5 -6.599999904632568 10.25
vertex 18.5 -6.599999904632568 8.75
endloop
endfacet
facet normal 0.0 -0.0 1.0
outer loop
vertex 18.5 -6.599999904632568 10.25
vertex 18.5 -5.400000095367432 10.25
vertex -18.5 -6.599999904632568 10.25
endloop
endfacet
facet normal -0.0 1.0 0.0
outer loop
vertex -18.5 -5.400000095367432 10.25
vertex 18.5 -5.400000095367432 10.25
vertex -18.5 -5.400000095367432 8.75
endloop
endfacet
facet normal -0.0 -0.0 -1.0
outer loop
vertex 18.5 -5.400000095367432 8.75
vertex 18.5 -6.599999904632568 8.75
vertex -18.5 -5.400000095367432 8.75
endloop
endfacet
facet normal -0.0 1.0 0.0
outer loop
vertex -18.5 -5.400000095367432 8.75
vertex 18.5 -5.400000095367432 10.25
vertex 18.5 -5.400000095367432 8.75
endloop
endfacet
facet normal 1.0 0.0 0.0
outer loop
vertex 18.5 -5.400000095367432 8.75
vertex 18.5 -6.599999904632568 10.25
vertex 18.5 -6.599999904632568 8.75
endloop
endfacet
facet normal 1.0 0.0 0.0
outer loop
vertex 18.5 -5.400000095367432 10.25
vertex 18.5 -6.599999904632568 10.25
vertex 18.5 -5.400000095367432 8.75
endloop
endfacet
facet normal -0.9999999999999999 0.0 -0.0
outer loop
vertex -18.5 -1.600000023841858 10.25
vertex -18.5 -0.4000000059604645 10.25
vertex -18.5 -1.600000023841858 8.75
endloop
endfacet
facet normal -0.0 -1.0 -0.0
outer loop
vertex 18.5 -1.600000023841858 8.75
vertex -18.5 -1.600000023841858 10.25
vertex -18.5 -1.600000023841858 8.75
endloop
endfacet
facet normal -0.9999999999999999 0.0 0.0
outer loop
vertex -18.5 -1.600000023841858 8.75
vertex -18.5 -0.4000000059604645 10.25
vertex -18.5 -0.4000000059604645 8.75
endloop
endfacet
facet normal -0.0 -0.0 -1.0
outer loop
vertex -18.5 -0.4000000059604645 8.75
vertex 18.5 -1.600000023841858 8.75
vertex -18.5 -1.600000023841858 8.75
endloop
endfacet
facet normal 0.0 -0.0 1.0
outer loop
vertex -18.5 -1.600000023841858 10.25
vertex 18.5 -0.4000000059604645 10.25
vertex -18.5 -0.4000000059604645 10.25
endloop
endfacet
facet normal -0.0 -1.0 -0.0
outer loop
vertex 18.5 -1.600000023841858 10.25
vertex -18.5 -1.600000023841858 10.25
vertex 18.5 -1.600000023841858 8.75
endloop
endfacet
facet normal 0.0 -0.0 1.0
outer loop
vertex 18.5 -1.600000023841858 10.25
vertex 18.5 -0.4000000059604645 10.25
vertex -18.5 -1.600000023841858 10.25
endloop
endfacet
facet normal -0.0 1.0 0.0
outer loop
vertex -18.5 -0.4000000059604645 10.25
vertex 18.5 -0.4000000059604645 10.25
vertex -18.5 -0.4000000059604645 8.75
endloop
endfacet
facet normal -0.0 -0.0 -1.0
outer loop
vertex 18.5 -0.4000000059604645 8.75
vertex 18.5 -1.600000023841858 8.75
vertex -18.5 -0.4000000059604645 8.75
endloop
endfacet
facet normal -0.0 1.0 0.0
outer loop
vertex -18.5 -0.4000000059604645 8.75
vertex 18.5 -0.4000000059604645 10.25
vertex 18.5 -0.4000000059604645 8.75
endloop
endfacet
facet normal 0.9999999999999999 0.0 0.0
outer loop
vertex 18.5 -0.4000000059604645 8.75
vertex 18.5 -1.600000023841858 10.25
vertex 18.5 -1.600000023841858 8.75
endloop
endfacet
facet normal 0.9999999999999999 0.0 0.0
outer loop
vertex 18.5 -0.4000000059604645 10.25
vertex 18.5 -1.600000023841858 10.25
vertex 18.5 -0.4000000059604645 8.75
endloop
endfacet
facet normal -1.0 0.0 -0.0
outer loop
vertex -18.5 3.4000000953674316 10.25
vertex -18.5 4.599999904632568 10.25
vertex -18.5 3.4000000953674316 8.75
endloop
endfacet
facet normal -0.0 -1.0 -0.0
outer loop
vertex 18.5 3.4000000953674316 8.75
vertex -18.5 3.4000000953674316 10.25
vertex -18.5 3.4000000953674316 8.75
endloop
endfacet
facet normal -1.0 0.0 0.0
outer loop
vertex -18.5 3.4000000953674316 8.75
vertex -18.5 4.599999904632568 10.25
vertex -18.5 4.599999904632568 8.75
endloop
endfacet
facet normal -0.0 -0.0 -1.0
outer loop
vertex -18.5 4.599999904632568 8.75
vertex 18.5 3.4000000953674316 8.75
vertex -18.5 3.4000000953674316 8.75
endloop
endfacet
facet normal 0.0 -0.0 1.0
outer loop
vertex -18.5 3.4000000953674316 10.25
vertex 18.5 4.599999904632568 10.25
vertex -18.5 4.599999904632568 10.25
endloop
endfacet
facet normal -0.0 -1.0 -0.0
outer loop
vertex 18.5 3.4000000953674316 10.25
vertex -18.5 3.4000000953674316 10.25
vertex 18.5 3.4000000953674316 8.75
endloop
endfacet
facet normal 0.0 -0.0 1.0
outer loop
vertex 18.5 3.4000000953674316 10.25
vertex 18.5 4.599999904632568 10.25
vertex -18.5 3.4000000953674316 10.25
endloop
endfacet
facet normal -0.0 1.0 0.0
outer loop
vertex -18.5 4.599999904632568 10.25
vertex 18.5 4.599999904632568 10.25
vertex -18.5 4.599999904632568 8.75
endloop
endfacet
facet normal -0.0 -0.0 -1.0
outer loop
vertex 18.5 4.599999904632568 8.75
vertex 18.5 3.4000000953674316 8.75
vertex -18.5 4.599999904632568 8.75
endloop
endfacet
facet normal -0.0 1.0 0.0
outer loop
vertex -18.5 4.599999904632568 8.75
vertex 18.5 4.599999904632568 10.25
vertex 18.5 4.599999904632568 8.75
endloop
endfacet
facet normal 1.0 0.0 0.0
outer loop
vertex 18.5 4.599999904632568 8.75
vertex 18.5 3.4000000953674316 10.25
vertex 18.5 3.4000000953674316 8.75
endloop
endfacet
facet normal 1.0 0.0 0.0
outer loop
vertex 18.5 4.599999904632568 10.25
vertex 18.5 3.4000000953674316 10.25
vertex 18.5 4.599999904632568 8.75
endloop
endfacet
facet normal -1.0 0.0 -0.0
outer loop
vertex -18.5 8.399999618530273 10.25
vertex -18.5 9.600000381469727 10.25
vertex -18.5 8.399999618530273 8.75
endloop
endfacet
facet normal -0.0 -1.0 -0.0
outer loop
vertex 18.5 8.399999618530273 8.75
vertex -18.5 8.399999618530273 10.25
vertex -18.5 8.399999618530273 8.75
endloop
endfacet
facet normal -1.0 0.0 0.0
outer loop
vertex -18.5 8.399999618530273 8.75
vertex -18.5 9.600000381469727 10.25
vertex -18.5 9.600000381469727 8.75
endloop
endfacet
facet normal -0.0 -0.0 -1.0
outer loop
vertex -18.5 9.600000381469727 8.75
vertex 18.5 8.399999618530273 8.75
vertex -18.5 8.399999618530273 8.75
endloop
endfacet
facet normal 0.0 -0.0 1.0
outer loop
vertex -18.5 8.399999618530273 10.25
vertex 18.5 9.600000381469727 10.25
vertex -18.5 9.600000381469727 10.25
endloop
endfacet
facet normal -0.0 -1.0 -0.0
outer loop
vertex 18.5 8.399999618530273 10.25
vertex -18.5 8.399999618530273 10.25
vertex 18.5 8.399999618530273 8.75
endloop
endfacet
facet normal 0.0 -0.0 1.0
outer loop
vertex 18.5 8.399999618530273 10.25
vertex 18.5 9.600000381469727 10.25
vertex -18.5 8.399999618530273 10.25
endloop
endfacet
facet normal -0.0 1.0 0.0
outer loop
vertex -18.5 9.600000381469727 10.25
vertex 18.5 9.600000381469727 10.25
vertex -18.5 9.600000381469727 8.75
endloop
endfacet
facet normal -0.0 -0.0 -1.0
outer loop
vertex 18.5 9.600000381469727 8.75
vertex 18.5 8.399999618530273 8.75
vertex -18.5 9.600000381469727 8.75
endloop
endfacet
facet normal -0.0 1.0 0.0
outer loop
vertex -18.5 9.600000381469727 8.75
vertex 18.5 9.600000381469727 10.25
vertex 18.5 9.600000381469727 8.75
endloop
endfacet
facet normal 1.0 0.0 0.0
outer loop
vertex 18.5 9.600000381469727 8.75
vertex 18.5 8.399999618530273 10.25
vertex 18.5 8.399999618530273 8.75
endloop
endfacet
facet normal 1.0 0.0 0.0
outer loop
vertex 18.5 9.600000381469727 10.25
vertex 18.5 8.399999618530273 10.25
vertex 18.5 9.600000381469727 8.75
endloop
endfacet

endsolid
